<svg version="1.1" id="Layer_1" xmlns="http://www.w3.org/2000/svg" xmlns:xlink="http://www.w3.org/1999/xlink" x="0px" y="0px"
	 width="100%" viewBox="0 0 224 96" enable-background="new 0 0 224 96" xml:space="preserve">
<path fill="#FDFEFE" opacity="1.000000" stroke="none" 
	d="
M225.000000,55.000000 
	C225.000000,68.945091 225.000000,82.890182 225.000000,97.000000 
	C201.979340,97.000000 178.958328,97.000000 155.591370,96.664703 
	C156.056274,95.803078 157.309021,95.457672 157.609970,94.722572 
	C160.797974,86.935730 163.904007,79.112366 166.799530,71.213608 
	C167.072937,70.467781 165.761398,69.140953 165.185699,68.083878 
	C164.259460,68.774612 162.864044,69.272247 162.486771,70.188919 
	C160.684448,74.568085 159.158340,79.060928 157.436554,83.780518 
	C156.049301,79.635414 154.987885,75.708817 153.380173,72.020355 
	C152.708420,70.479210 150.875748,69.444077 149.570923,68.178871 
	C149.391266,70.043098 148.640930,72.079269 149.140884,73.738731 
	C150.537994,78.375946 152.534454,82.828651 154.134857,87.409897 
	C155.259354,90.628784 154.191208,92.668198 150.562958,93.023132 
	C149.493256,93.127777 148.446213,93.463982 147.030014,93.772141 
	C147.863312,95.137512 148.431656,96.068756 149.000000,97.000000 
	C99.727371,97.000000 50.454742,97.000000 1.091055,97.000000 
	C1.091055,65.100311 1.091055,33.200272 1.091055,1.000000 
	C38.020351,1.000000 75.041519,1.000000 112.523132,1.468595 
	C112.983589,19.578964 112.983589,37.220737 112.983589,54.862514 
	C113.510910,54.855442 114.038239,54.848373 114.565559,54.841305 
	C114.439171,53.566689 114.312782,52.292072 114.199623,51.150806 
	C118.065147,49.755661 121.586456,48.484753 126.232880,46.807766 
	C122.620308,44.802895 120.092010,43.399765 117.354469,41.880512 
	C117.947311,40.413292 118.521286,38.992771 119.191139,37.334946 
	C116.487442,36.902077 112.553757,37.785091 114.092117,34.510410 
	C118.865898,32.582706 122.426674,31.144827 126.452705,29.795265 
	C127.156128,31.716650 127.228638,33.380955 130.042557,33.014992 
	C132.922104,32.640499 135.888275,32.932037 140.379410,32.932037 
	C138.083206,37.802017 136.228989,41.734608 134.222580,45.989994 
	C134.928482,46.259216 135.932907,46.642296 137.136887,47.342403 
	C137.532669,51.192894 136.628845,52.165020 134.074066,50.482494 
	C130.817810,48.338005 128.383224,49.282791 125.513893,50.993263 
	C123.086975,52.440002 120.353142,53.371906 116.918320,54.905220 
	C125.457802,54.905220 133.121719,54.905220 141.119690,54.934700 
	C141.677231,54.959908 141.900742,54.955635 142.585052,54.962940 
	C170.363892,54.983013 197.681946,54.991505 225.000000,55.000000 
M69.896019,44.049294 
	C77.466278,45.350639 80.883133,40.386597 79.233025,33.042896 
	C78.696739,30.656170 77.314117,28.463366 76.739655,26.080364 
	C76.208794,23.878208 75.700249,21.429935 76.137138,19.284595 
	C77.090889,14.601182 78.651588,10.041370 80.003960,5.291823 
	C73.567551,5.291823 68.478271,5.291823 63.129581,5.291823 
	C63.129581,20.736202 63.185970,35.865330 63.085541,50.993416 
	C63.063484,54.316185 64.575874,54.369801 67.373039,53.614796 
	C67.373039,50.314842 67.373039,47.174500 67.933052,44.076408 
	C68.305893,44.043682 68.678726,44.010956 69.896019,44.049294 
M14.840386,42.056194 
	C14.840386,42.056194 14.707246,42.076370 15.549939,42.419712 
	C15.898367,45.666172 18.535206,45.602947 20.360365,44.884724 
	C22.580513,44.011063 25.940130,42.204578 26.065933,40.588284 
	C26.384346,36.497387 26.010075,31.901087 24.326283,28.236383 
	C22.732044,24.766588 22.266642,22.154274 23.679270,18.619143 
	C25.221888,14.758710 25.933462,10.566194 27.085409,6.223897 
	C20.949411,6.223897 15.874188,6.223897 10.433320,6.223897 
	C10.433320,21.443954 10.379678,36.402973 10.551388,51.359406 
	C10.563108,52.380180 12.264807,53.381554 13.938794,55.228569 
	C14.348210,49.633472 14.624149,45.862480 14.840386,42.056194 
M105.383965,51.112457 
	C105.223259,54.474129 107.070869,54.418949 109.490051,53.612797 
	C109.490051,37.777180 109.490051,22.064497 109.490051,6.245569 
	C100.493820,6.245569 91.774933,6.245569 83.013290,6.245569 
	C83.013290,22.233299 83.013290,37.951778 83.013290,53.670254 
	C83.366203,53.967190 83.719124,54.264126 84.072037,54.561058 
	C85.439056,53.269257 86.806068,51.977451 88.595657,50.286320 
	C93.419121,50.286320 99.212875,50.286320 105.383965,51.112457 
M56.081017,33.496506 
	C56.081017,24.404371 56.081017,15.312236 56.081017,6.328644 
	C47.281467,6.328644 39.064159,6.328644 30.976755,6.328644 
	C29.367828,21.562218 34.268551,37.505989 23.291096,50.930420 
	C24.480322,51.948532 25.523859,52.841911 27.496523,54.530731 
	C30.248884,48.326073 32.676949,42.852486 35.173344,37.224854 
	C40.306919,37.224854 45.918678,37.224854 51.499954,37.224854 
	C52.689064,47.703682 52.689064,47.703682 40.947540,50.123650 
	C42.173382,51.437859 43.644703,52.833191 45.181713,52.909752 
	C54.939030,53.395805 56.048321,52.286064 56.074387,42.991531 
	C56.082329,40.159103 56.078468,37.326645 56.081017,33.496506 
M65.615875,61.004669 
	C63.224064,61.573799 59.252922,59.299759 59.083168,63.985050 
	C58.818707,71.284492 58.891998,78.604614 59.143684,85.904900 
	C59.180077,86.960472 61.003212,87.954453 61.999519,88.976936 
	C62.996017,87.954460 64.649704,87.047409 64.853752,85.885735 
	C65.293770,83.380623 64.989014,80.744698 64.989014,77.992058 
	C68.035454,77.992058 70.362099,78.125885 72.668205,77.965157 
	C78.037003,77.590965 80.953590,74.598351 80.995010,69.625694 
	C81.038658,64.386147 78.495529,61.562832 73.027954,61.044193 
	C70.887543,60.841164 68.712143,61.006886 65.615875,61.004669 
M101.751549,72.311981 
	C99.737350,67.272522 95.280182,67.528191 91.297661,68.182762 
	C88.880623,68.580032 86.572372,70.490227 84.597191,72.169891 
	C84.053772,72.632011 84.883987,74.709427 85.155220,76.522354 
	C92.963310,70.565765 94.584839,70.472534 97.092506,75.745186 
	C94.069061,76.512665 91.158531,77.328041 88.211693,77.979095 
	C84.917778,78.706833 82.231155,80.625443 83.257187,83.943962 
	C83.895691,86.009064 86.799530,88.452774 88.929008,88.708481 
	C91.675865,89.038345 94.664963,87.350906 97.274246,86.610420 
	C98.647217,87.327507 100.068428,88.069794 101.489639,88.812080 
	C101.963165,87.842400 102.868561,86.857895 102.835869,85.905594 
	C102.689880,81.653191 102.276138,77.409988 101.751549,72.311981 
M138.004669,81.398781 
	C138.004745,82.398430 137.728729,83.504730 138.064774,84.374580 
	C138.683823,85.976936 139.662521,87.440361 140.491333,88.961678 
	C141.325928,87.446159 142.742004,85.981766 142.880630,84.405045 
	C143.227509,80.460159 142.995087,76.464325 142.995087,73.325386 
	C144.737244,71.960770 145.852249,71.087395 146.967255,70.214027 
	C145.758240,69.073105 144.549225,67.932182 142.397095,65.901253 
	C144.627289,64.938507 146.698715,64.044312 149.906982,62.659355 
	C148.253723,61.598476 146.919861,60.031055 145.797958,60.170387 
	C143.444885,60.462624 140.584015,61.053627 139.067963,62.621044 
	C137.034286,64.723602 136.075928,67.866249 134.552948,70.757896 
	C139.823639,72.024734 137.717468,76.698677 138.004669,81.398781 
M108.036217,70.200981 
	C108.026909,75.338196 107.858139,80.483879 108.130150,85.606155 
	C108.191490,86.761353 109.788811,87.834984 110.679062,88.946167 
	C111.449638,87.880730 112.751602,86.877655 112.885414,85.737488 
	C113.211609,82.958176 112.756851,80.089104 113.061699,77.304916 
	C113.419044,74.041145 114.274704,70.990906 118.901421,72.292130 
	C119.740181,72.528023 120.904739,71.605484 121.918892,71.217735 
	C121.372757,70.385620 120.826035,68.835594 120.280579,68.836044 
	C116.260849,68.839325 112.241371,69.152100 108.036217,70.200981 
M126.005295,71.929131 
	C126.005798,76.401718 125.834641,80.885178 126.117058,85.339897 
	C126.196198,86.588242 127.610596,87.751930 128.412491,88.954460 
	C129.272400,87.810516 130.799179,86.708504 130.874207,85.515198 
	C131.164703,80.895218 131.124039,76.239891 130.903320,71.612190 
	C130.846008,70.410316 129.687607,69.260971 129.034943,68.087494 
	C128.026703,69.066765 127.018471,70.046028 126.005295,71.929131 
M129.339081,37.064156 
	C127.230377,37.804142 125.121674,38.544128 123.012970,39.284111 
	C125.033615,41.011765 127.054268,42.739422 129.392044,44.738220 
	C131.500107,41.947803 133.018433,39.938007 135.025650,37.281075 
	C132.693008,37.177509 131.416397,37.120831 129.339081,37.064156 
z"/>
<path fill="#0C1012" opacity="1.000000" stroke="none" 
	d="
M225.000000,54.531342 
	C197.681946,54.991505 170.363892,54.983013 142.633209,54.632248 
	C145.702530,51.306976 149.184464,48.323971 152.505112,45.479137 
	C155.883774,48.331364 159.236053,51.161301 162.825607,54.191547 
	C163.994339,52.530968 164.717346,51.503708 165.425095,50.498112 
	C162.817184,48.332401 160.397583,46.324429 157.979492,44.314617 
	C155.857590,42.550968 155.387238,40.941418 156.576675,37.949829 
	C158.693314,32.626316 159.680908,26.859243 161.245148,21.307110 
	C161.652771,19.860355 162.361542,18.476040 163.087173,17.147833 
	C163.762787,15.911219 164.645020,14.787494 166.069153,12.675599 
	C159.439117,12.675599 154.547287,12.675599 149.341370,12.675599 
	C149.979630,10.536907 150.833801,8.815847 150.901474,7.064407 
	C150.950165,5.804171 149.949905,4.503405 149.417542,3.220716 
	C148.584473,4.161984 147.390762,4.968831 146.981094,6.067926 
	C145.257553,10.691834 143.768234,15.403045 141.860657,19.846563 
	C141.221313,17.881588 140.914505,16.152353 140.581100,14.273196 
	C137.397842,14.086942 134.492966,13.916974 131.000000,13.712597 
	C131.000000,9.224953 131.000000,5.112476 131.000000,1.000000 
	C162.240433,1.000000 193.480881,1.000000 225.000000,1.000000 
	C225.000000,18.686586 225.000000,36.374634 225.000000,54.531342 
M183.424805,32.903782 
	C178.315750,32.903782 173.206696,32.903782 167.749100,32.903782 
	C168.002670,34.699631 168.171188,35.893158 168.383408,37.396141 
	C176.512390,37.396141 184.270126,37.396141 191.929688,37.396141 
	C192.782715,45.009403 193.464874,52.169270 181.882141,47.857464 
	C182.032501,49.928013 182.133209,51.314823 182.300705,53.621437 
	C186.599930,52.962299 192.282211,53.695007 193.878387,51.481373 
	C196.459656,47.901623 196.354874,42.385044 197.496689,37.173866 
	C204.068176,37.173866 211.325500,37.173866 218.827118,37.173866 
	C218.827118,35.592575 218.827118,34.401051 218.827118,32.681183 
	C211.723434,32.681183 204.867355,32.681183 198.011292,32.681183 
	C200.068588,30.024984 202.436844,28.383718 204.914795,26.929308 
	C207.568192,25.371916 210.072266,23.862940 208.471191,20.111282 
	C198.201233,20.111282 188.089035,20.111282 177.966980,20.111282 
	C177.081100,22.917496 177.540802,24.239580 180.755875,24.141842 
	C187.121979,23.948315 193.498123,24.084690 200.838837,24.084690 
	C196.901810,27.277077 193.901031,29.710295 189.962555,32.903866 
	C189.048630,32.903866 186.720459,32.903866 183.424805,32.903782 
M190.928360,10.886496 
	C184.006516,10.886496 177.084671,10.886496 170.115417,10.886496 
	C170.115417,14.555272 170.115417,17.647772 170.115417,21.048155 
	C171.557175,20.951492 172.767914,20.870317 173.894775,20.794767 
	C174.080902,18.703186 174.235703,16.963797 174.377090,15.375040 
	C187.499527,15.375040 200.232391,15.375040 212.941681,15.375040 
	C213.156097,17.420813 213.340485,19.180044 213.619858,21.845486 
	C219.668243,19.142981 216.229202,14.602665 217.411972,10.913256 
	C210.289261,10.913256 203.851837,10.913256 197.479462,10.913256 
	C196.399368,4.777681 193.283768,2.673456 190.110779,5.182539 
	C190.697083,7.109350 191.240097,8.893940 190.928360,10.886496 
M139.618378,9.103938 
	C139.618378,7.835176 139.618378,6.566415 139.618378,5.297654 
	C139.099945,5.306393 138.581512,5.315131 138.063080,5.323870 
	C136.411896,7.059388 134.760727,8.794907 133.132767,10.506021 
	C136.131638,14.932577 137.391571,10.868146 139.618378,9.103938 
z"/>
<path fill="#0C1012" opacity="1.000000" stroke="none" 
	d="
M125.987457,29.706947 
	C122.426674,31.144827 118.865898,32.582706 114.092117,34.510410 
	C112.553757,37.785091 116.487442,36.902077 119.191139,37.334946 
	C118.521286,38.992771 117.947311,40.413292 117.354469,41.880512 
	C120.092010,43.399765 122.620308,44.802895 126.232880,46.807766 
	C121.586456,48.484753 118.065147,49.755661 114.199623,51.150806 
	C114.312782,52.292072 114.439171,53.566689 114.565559,54.841305 
	C114.038239,54.848373 113.510910,54.855442 112.983589,54.862514 
	C112.983589,37.220737 112.983589,19.578964 112.991791,1.468595 
	C117.356903,1.000000 121.713799,1.000000 126.580017,1.340605 
	C127.065796,2.138536 127.042259,2.595860 126.923218,3.502555 
	C126.827705,7.535016 126.827705,11.118106 126.827705,15.080565 
	C122.431168,15.080565 118.683830,15.080565 115.053848,15.080565 
	C115.053848,16.581221 115.053848,17.676220 115.053848,19.233494 
	C117.829742,19.233494 120.368385,19.233494 122.907028,19.233494 
	C123.117393,19.672714 123.327759,20.111933 123.538124,20.551153 
	C120.367340,22.831211 117.196564,25.111271 112.757011,28.303686 
	C115.291077,28.627636 116.588669,29.189400 117.529320,28.826340 
	C119.178574,28.189783 120.608986,26.986240 122.328506,25.950211 
	C122.776253,25.729103 122.948196,25.515039 123.076180,25.110577 
	C123.110580,24.983131 123.363762,25.057974 123.499451,24.984703 
	C123.807220,24.789284 123.937653,24.632483 124.188202,24.162512 
	C124.894714,23.672108 125.439445,23.460213 125.975418,23.652241 
	C125.973579,25.939758 125.980515,27.823353 125.987457,29.706947 
M122.171677,8.247427 
	C120.528419,7.487208 118.885155,6.726989 117.241890,5.966773 
	C118.086685,8.376698 118.931473,10.786622 119.776268,13.196548 
	C120.582230,13.103232 121.388191,13.009917 122.194160,12.916602 
	C122.324829,11.543233 122.455498,10.169865 122.171677,8.247427 
z"/>
<path fill="#666666" opacity="1.000000" stroke="none" 
	d="
M149.428467,97.000000 
	C148.431656,96.068756 147.863312,95.137512 147.030014,93.772141 
	C148.446213,93.463982 149.493256,93.127777 150.562958,93.023132 
	C154.191208,92.668198 155.259354,90.628784 154.134857,87.409897 
	C152.534454,82.828651 150.537994,78.375946 149.140884,73.738731 
	C148.640930,72.079269 149.391266,70.043098 149.570923,68.178871 
	C150.875748,69.444077 152.708420,70.479210 153.380173,72.020355 
	C154.987885,75.708817 156.049301,79.635414 157.436554,83.780518 
	C159.158340,79.060928 160.684448,74.568085 162.486771,70.188919 
	C162.864044,69.272247 164.259460,68.774612 165.185699,68.083878 
	C165.761398,69.140953 167.072937,70.467781 166.799530,71.213608 
	C163.904007,79.112366 160.797974,86.935730 157.609970,94.722572 
	C157.309021,95.457672 156.056274,95.803078 155.122711,96.664703 
	C153.285645,97.000000 151.571289,97.000000 149.428467,97.000000 
z"/>
<path fill="#2C3840" opacity="1.000000" stroke="none" 
	d="
M127.018723,3.053185 
	C127.042259,2.595860 127.065796,2.138536 127.044662,1.340605 
	C128.066666,1.000000 129.133347,1.000000 130.600006,1.000000 
	C131.000000,5.112476 131.000000,9.224953 131.000000,13.712597 
	C134.492966,13.916974 137.397842,14.086942 140.581100,14.273196 
	C140.914505,16.152353 141.221313,17.881588 141.826859,20.192200 
	C141.081909,22.227842 140.038223,23.682108 138.668518,24.984291 
	C135.524475,23.249975 132.706482,21.667740 129.888474,20.085505 
	C129.950684,19.750944 130.012894,19.416382 130.075104,19.081821 
	C133.411835,19.081821 136.748566,19.081821 140.612885,19.081821 
	C139.300583,11.616710 133.018967,17.198057 130.288147,13.937772 
	C130.288147,11.425662 130.136658,8.604567 130.331589,5.807619 
	C130.518936,3.119915 129.165009,2.714928 127.018723,3.053185 
z"/>
<path fill="#0D0D0D" opacity="1.000000" stroke="none" 
	d="
M105.195297,50.699387 
	C99.212875,50.286320 93.419121,50.286320 88.595657,50.286320 
	C86.806068,51.977451 85.439056,53.269257 84.072037,54.561058 
	C83.719124,54.264126 83.366203,53.967190 83.013290,53.670254 
	C83.013290,37.951778 83.013290,22.233299 83.013290,6.245569 
	C91.774933,6.245569 100.493820,6.245569 109.490051,6.245569 
	C109.490051,22.064497 109.490051,37.777180 109.490051,53.612797 
	C107.070869,54.418949 105.223259,54.474129 105.195297,50.699387 
M86.952766,38.475113 
	C86.952766,40.904343 86.952766,43.333569 86.952766,45.726044 
	C93.451195,45.726044 99.374222,45.726044 105.177917,45.726044 
	C105.177917,40.069366 105.177917,34.673153 105.177917,29.302275 
	C98.984459,29.302275 93.084145,29.302275 86.952530,29.302275 
	C86.952530,32.222115 86.952530,34.861652 86.952766,38.475113 
M86.953049,14.598472 
	C86.953049,18.011784 86.953049,21.425095 86.953049,24.680729 
	C93.516312,24.680729 99.421700,24.680729 105.333405,24.680729 
	C105.333405,19.752003 105.333405,15.127130 105.333405,10.018442 
	C99.914734,10.018442 94.629341,10.149588 89.354584,9.969473 
	C86.167931,9.860659 87.106682,11.997316 86.953049,14.598472 
z"/>
<path fill="#060606" opacity="1.000000" stroke="none" 
	d="
M56.080513,33.995354 
	C56.078468,37.326645 56.082329,40.159103 56.074387,42.991531 
	C56.048321,52.286064 54.939030,53.395805 45.181713,52.909752 
	C43.644703,52.833191 42.173382,51.437859 40.947540,50.123650 
	C52.689064,47.703682 52.689064,47.703682 51.499954,37.224854 
	C45.918678,37.224854 40.306919,37.224854 35.173344,37.224854 
	C32.676949,42.852486 30.248884,48.326073 27.496523,54.530731 
	C25.523859,52.841911 24.480322,51.948532 23.291096,50.930420 
	C34.268551,37.505989 29.367828,21.562218 30.976755,6.328644 
	C39.064159,6.328644 47.281467,6.328644 56.081017,6.328644 
	C56.081017,15.312236 56.081017,24.404371 56.080513,33.995354 
M34.930347,10.644364 
	C34.930347,13.606113 34.930347,16.567862 34.930347,19.650160 
	C40.709618,19.650160 46.248775,19.650160 51.738754,19.650160 
	C51.738754,16.358015 51.738754,13.411122 51.738754,10.063854 
	C46.274826,10.063854 40.988655,10.063854 34.930347,10.644364 
M51.922356,29.434605 
	C51.922356,27.690115 51.922356,25.945625 51.922356,24.279583 
	C45.872810,24.279583 40.470745,24.279583 34.914803,24.279583 
	C34.914803,27.272490 34.914803,29.989349 34.914803,32.991043 
	C39.932602,32.991043 44.729939,33.117043 49.508392,32.873119 
	C50.353313,32.829990 51.119473,31.243778 51.922356,29.434605 
z"/>
<path fill="#F2F4F6" opacity="1.000000" stroke="none" 
	d="
M138.994553,25.136372 
	C140.038223,23.682108 141.081909,22.227842 142.159393,20.427940 
	C143.768234,15.403045 145.257553,10.691834 146.981094,6.067926 
	C147.390762,4.968831 148.584473,4.161984 149.417542,3.220716 
	C149.949905,4.503405 150.950165,5.804171 150.901474,7.064407 
	C150.833801,8.815847 149.979630,10.536907 149.341370,12.675599 
	C154.547287,12.675599 159.439117,12.675599 166.069153,12.675599 
	C164.645020,14.787494 163.762787,15.911219 163.087173,17.147833 
	C162.361542,18.476040 161.652771,19.860355 161.245148,21.307110 
	C159.680908,26.859243 158.693314,32.626316 156.576675,37.949829 
	C155.387238,40.941418 155.857590,42.550968 157.979492,44.314617 
	C160.397583,46.324429 162.817184,48.332401 165.425095,50.498112 
	C164.717346,51.503708 163.994339,52.530968 162.825607,54.191547 
	C159.236053,51.161301 155.883774,48.331364 152.505112,45.479137 
	C149.184464,48.323971 145.702530,51.306976 142.172424,54.620674 
	C141.900742,54.955635 141.677231,54.959908 140.997742,54.634521 
	C137.713226,52.610130 139.474457,51.306377 141.244720,49.903847 
	C143.849060,47.667137 146.233337,45.604095 148.325089,43.278004 
	C149.019180,42.506153 149.468323,40.893097 149.160477,39.947548 
	C147.746536,35.604630 146.025024,31.361851 144.425125,27.112965 
	C142.599548,27.112965 140.819778,27.112965 139.027191,26.783672 
	C139.007767,26.015045 139.001160,25.575708 138.994553,25.136372 
M156.866302,17.171196 
	C153.785873,17.171196 150.705429,17.171196 146.479965,17.171196 
	C148.297562,24.101408 149.894257,30.189306 151.490936,36.277203 
	C152.341400,36.241425 153.191864,36.205643 154.042328,36.169861 
	C155.229828,29.979712 156.417328,23.789560 156.866302,17.171196 
z"/>
<path fill="#161616" opacity="1.000000" stroke="none" 
	d="
M14.900088,42.091484 
	C14.624149,45.862480 14.348210,49.633472 13.938794,55.228569 
	C12.264807,53.381554 10.563108,52.380180 10.551388,51.359406 
	C10.379678,36.402973 10.433320,21.443954 10.433320,6.223897 
	C15.874188,6.223897 20.949411,6.223897 27.085409,6.223897 
	C25.933462,10.566194 25.221888,14.758710 23.679270,18.619143 
	C22.266642,22.154274 22.732044,24.766588 24.326283,28.236383 
	C26.010075,31.901087 26.384346,36.497387 26.065933,40.588284 
	C25.940130,42.204578 22.580513,44.011063 20.360365,44.884724 
	C18.535206,45.602947 15.898367,45.666172 15.448143,41.897949 
	C22.951872,40.431396 25.423796,37.497356 21.498755,31.443386 
	C17.360865,25.061113 18.934446,19.776659 20.969492,13.856339 
	C21.363188,12.711004 21.500359,11.477491 21.760735,10.261913 
	C19.145319,10.261913 16.897491,10.261913 14.900088,10.261913 
	C14.900088,21.057758 14.900088,31.574621 14.900088,42.091484 
z"/>
<path fill="#0E0E0E" opacity="1.000000" stroke="none" 
	d="
M67.373039,44.034157 
	C67.373039,47.174500 67.373039,50.314842 67.373039,53.614796 
	C64.575874,54.369801 63.063484,54.316185 63.085541,50.993416 
	C63.185970,35.865330 63.129581,20.736202 63.129581,5.291823 
	C68.478271,5.291823 73.567551,5.291823 80.003960,5.291823 
	C78.651588,10.041370 77.090889,14.601182 76.137138,19.284595 
	C75.700249,21.429935 76.208794,23.878208 76.739655,26.080364 
	C77.314117,28.463366 78.696739,30.656170 79.233025,33.042896 
	C80.883133,40.386597 77.466278,45.350639 69.348907,43.641846 
	C68.498566,42.328583 68.195320,41.422771 67.872002,40.456993 
	C75.535042,39.623657 78.033897,36.478203 74.185165,30.349911 
	C70.270760,24.117031 71.961754,18.984045 73.942421,13.268410 
	C74.389023,11.979660 74.583206,10.603441 74.871658,9.361866 
	C72.092514,9.361866 69.706451,9.361866 67.373039,9.361866 
	C67.373039,21.168329 67.373039,32.601242 67.373039,44.034157 
z"/>
<path fill="#666666" opacity="1.000000" stroke="none" 
	d="
M66.084274,61.004669 
	C68.712143,61.006886 70.887543,60.841164 73.027954,61.044193 
	C78.495529,61.562832 81.038658,64.386147 80.995010,69.625694 
	C80.953590,74.598351 78.037003,77.590965 72.668205,77.965157 
	C70.362099,78.125885 68.035454,77.992058 64.989014,77.992058 
	C64.989014,80.744698 65.293770,83.380623 64.853752,85.885735 
	C64.649704,87.047409 62.996017,87.954460 61.999519,88.976936 
	C61.003212,87.954453 59.180077,86.960472 59.143684,85.904900 
	C58.891998,78.604614 58.818707,71.284492 59.083168,63.985050 
	C59.252922,59.299759 63.224064,61.573799 66.084274,61.004669 
M66.611847,65.023369 
	C65.903610,67.866760 65.195366,70.710152 64.396744,73.916405 
	C67.443771,73.916405 69.595665,74.527939 70.982513,73.759224 
	C72.658119,72.830460 74.741798,70.693314 74.685013,69.151489 
	C74.632263,67.719116 72.106056,66.223679 70.445862,65.079636 
	C69.770424,64.614189 68.506149,65.003220 66.611847,65.023369 
z"/>
<path fill="#13171B" opacity="1.000000" stroke="none" 
	d="
M139.040024,27.112965 
	C140.819778,27.112965 142.599548,27.112965 144.425125,27.112965 
	C146.025024,31.361851 147.746536,35.604630 149.160477,39.947548 
	C149.468323,40.893097 149.019180,42.506153 148.325089,43.278004 
	C146.233337,45.604095 143.849060,47.667137 140.911377,49.845650 
	C139.141708,48.914154 138.039520,47.969765 136.937347,47.025375 
	C135.932907,46.642296 134.928482,46.259216 134.222580,45.989994 
	C136.228989,41.734608 138.083206,37.802017 140.379410,32.932037 
	C135.888275,32.932037 132.922104,32.640499 130.042557,33.014992 
	C127.228638,33.380955 127.156128,31.716650 126.452713,29.795265 
	C125.980515,27.823353 125.973579,25.939758 126.352402,23.804798 
	C126.822342,25.319675 126.906525,27.085917 126.990707,28.852158 
	C127.488670,29.065048 127.986641,29.277941 128.484604,29.490831 
	C129.390930,27.749718 130.297241,26.008606 131.503754,23.690798 
	C132.859879,24.822029 134.172699,26.227722 135.771423,27.122725 
	C136.599594,27.586351 137.934204,27.145304 139.040024,27.112965 
z"/>
<path fill="#666666" opacity="1.000000" stroke="none" 
	d="
M101.855331,72.737717 
	C102.276138,77.409988 102.689880,81.653191 102.835869,85.905594 
	C102.868561,86.857895 101.963165,87.842400 101.489639,88.812080 
	C100.068428,88.069794 98.647217,87.327507 97.274246,86.610420 
	C94.664963,87.350906 91.675865,89.038345 88.929008,88.708481 
	C86.799530,88.452774 83.895691,86.009064 83.257187,83.943962 
	C82.231155,80.625443 84.917778,78.706833 88.211693,77.979095 
	C91.158531,77.328041 94.069061,76.512665 97.092506,75.745186 
	C94.584839,70.472534 92.963310,70.565765 85.155220,76.522354 
	C84.883987,74.709427 84.053772,72.632011 84.597191,72.169891 
	C86.572372,70.490227 88.880623,68.580032 91.297661,68.182762 
	C95.280182,67.528191 99.737350,67.272522 101.855331,72.737717 
M96.986839,81.365326 
	C96.941376,76.365463 93.997643,80.683907 92.532661,80.215256 
	C91.366966,79.842346 89.553314,81.348389 88.126022,82.188065 
	C87.996834,82.264076 88.487007,84.135292 88.865730,84.204163 
	C90.533691,84.507500 92.329338,84.761024 93.953484,84.425789 
	C95.052834,84.198883 95.943871,82.962738 96.986839,81.365326 
z"/>
<path fill="#EBEBEB" opacity="1.000000" stroke="none" 
	d="
M67.653046,44.055283 
	C67.373039,32.601242 67.373039,21.168329 67.373039,9.361866 
	C69.706451,9.361866 72.092514,9.361866 74.871658,9.361866 
	C74.583206,10.603441 74.389023,11.979660 73.942421,13.268410 
	C71.961754,18.984045 70.270760,24.117031 74.185165,30.349911 
	C78.033897,36.478203 75.535042,39.623657 67.872002,40.456993 
	C68.195320,41.422771 68.498566,42.328583 68.926682,43.606312 
	C68.678726,44.010956 68.305893,44.043682 67.653046,44.055283 
z"/>
<path fill="#E5E5E5" opacity="1.000000" stroke="none" 
	d="
M14.870237,42.073837 
	C14.900088,31.574621 14.900088,21.057758 14.900088,10.261913 
	C16.897491,10.261913 19.145319,10.261913 21.760735,10.261913 
	C21.500359,11.477491 21.363188,12.711004 20.969492,13.856339 
	C18.934446,19.776659 17.360865,25.061113 21.498755,31.443386 
	C25.423796,37.497356 22.951872,40.431396 15.026796,41.726280 
	C14.707246,42.076370 14.840386,42.056194 14.870237,42.073837 
z"/>
<path fill="#666666" opacity="1.000000" stroke="none" 
	d="
M138.004669,80.927956 
	C137.717468,76.698677 139.823639,72.024734 134.552948,70.757896 
	C136.075928,67.866249 137.034286,64.723602 139.067963,62.621044 
	C140.584015,61.053627 143.444885,60.462624 145.797958,60.170387 
	C146.919861,60.031055 148.253723,61.598476 149.906982,62.659355 
	C146.698715,64.044312 144.627289,64.938507 142.397095,65.901253 
	C144.549225,67.932182 145.758240,69.073105 146.967255,70.214027 
	C145.852249,71.087395 144.737244,71.960770 142.995087,73.325386 
	C142.995087,76.464325 143.227509,80.460159 142.880630,84.405045 
	C142.742004,85.981766 141.325928,87.446159 140.491333,88.961678 
	C139.662521,87.440361 138.683823,85.976936 138.064774,84.374580 
	C137.728729,83.504730 138.004745,82.398430 138.004669,80.927956 
z"/>
<path fill="#666666" opacity="1.000000" stroke="none" 
	d="
M108.129013,69.784210 
	C112.241371,69.152100 116.260849,68.839325 120.280579,68.836044 
	C120.826035,68.835594 121.372757,70.385620 121.918892,71.217735 
	C120.904739,71.605484 119.740181,72.528023 118.901421,72.292130 
	C114.274704,70.990906 113.419044,74.041145 113.061699,77.304916 
	C112.756851,80.089104 113.211609,82.958176 112.885414,85.737488 
	C112.751602,86.877655 111.449638,87.880730 110.679062,88.946167 
	C109.788811,87.834984 108.191490,86.761353 108.130150,85.606155 
	C107.858139,80.483879 108.026909,75.338196 108.129013,69.784210 
z"/>
<path fill="#666666" opacity="1.000000" stroke="none" 
	d="
M126.007767,71.477219 
	C127.018471,70.046028 128.026703,69.066765 129.034943,68.087494 
	C129.687607,69.260971 130.846008,70.410316 130.903320,71.612190 
	C131.124039,76.239891 131.164703,80.895218 130.874207,85.515198 
	C130.799179,86.708504 129.272400,87.810516 128.412491,88.954453 
	C127.610596,87.751930 126.196198,86.588242 126.117058,85.339897 
	C125.834641,80.885178 126.005798,76.401718 126.007767,71.477219 
z"/>
<path fill="#161D22" opacity="1.000000" stroke="none" 
	d="
M137.136887,47.342407 
	C138.039520,47.969765 139.141708,48.914154 140.577240,49.916733 
	C139.474457,51.306377 137.713226,52.610130 140.663696,54.605045 
	C133.121719,54.905220 125.457802,54.905220 116.918320,54.905220 
	C120.353142,53.371906 123.086975,52.440002 125.513893,50.993263 
	C128.383224,49.282791 130.817810,48.338005 134.074066,50.482494 
	C136.628845,52.165020 137.532669,51.192894 137.136887,47.342407 
z"/>
<path fill="#192329" opacity="1.000000" stroke="none" 
	d="
M129.739441,37.064156 
	C131.416397,37.120831 132.693008,37.177509 135.025650,37.281075 
	C133.018433,39.938007 131.500107,41.947803 129.392044,44.738220 
	C127.054268,42.739422 125.033615,41.011765 123.012970,39.284111 
	C125.121674,38.544128 127.230377,37.804142 129.739441,37.064156 
z"/>
<path fill="#F9FAFB" opacity="1.000000" stroke="none" 
	d="
M183.908539,32.903824 
	C186.720459,32.903866 189.048630,32.903866 189.962555,32.903866 
	C193.901031,29.710295 196.901810,27.277077 200.838837,24.084690 
	C193.498123,24.084690 187.121979,23.948315 180.755875,24.141842 
	C177.540802,24.239580 177.081100,22.917496 177.966980,20.111282 
	C188.089035,20.111282 198.201233,20.111282 208.471191,20.111282 
	C210.072266,23.862940 207.568192,25.371916 204.914795,26.929308 
	C202.436844,28.383718 200.068588,30.024984 198.011292,32.681183 
	C204.867355,32.681183 211.723434,32.681183 218.827118,32.681183 
	C218.827118,34.401051 218.827118,35.592575 218.827118,37.173866 
	C211.325500,37.173866 204.068176,37.173866 197.496689,37.173866 
	C196.354874,42.385044 196.459656,47.901623 193.878387,51.481373 
	C192.282211,53.695007 186.599930,52.962299 182.300705,53.621437 
	C182.133209,51.314823 182.032501,49.928013 181.882141,47.857464 
	C193.464874,52.169270 192.782715,45.009403 191.929688,37.396141 
	C184.270126,37.396141 176.512390,37.396141 168.383408,37.396141 
	C168.171188,35.893158 168.002670,34.699631 167.749100,32.903782 
	C173.206696,32.903782 178.315750,32.903782 183.908539,32.903824 
z"/>
<path fill="#FAFBFC" opacity="1.000000" stroke="none" 
	d="
M191.355743,10.782513 
	C191.240097,8.893940 190.697083,7.109350 190.110779,5.182539 
	C193.283768,2.673456 196.399368,4.777681 197.479462,10.913256 
	C203.851837,10.913256 210.289261,10.913256 217.411972,10.913256 
	C216.229202,14.602665 219.668243,19.142981 213.619858,21.845486 
	C213.340485,19.180044 213.156097,17.420813 212.941681,15.375040 
	C200.232391,15.375040 187.499527,15.375040 174.377090,15.375040 
	C174.235703,16.963797 174.080902,18.703186 173.894775,20.794767 
	C172.767914,20.870317 171.557175,20.951492 170.115417,21.048155 
	C170.115417,17.647772 170.115417,14.555272 170.115417,10.886496 
	C177.084671,10.886496 184.006516,10.886496 191.355743,10.782513 
z"/>
<path fill="#EBEBEB" opacity="1.000000" stroke="none" 
	d="
M139.399918,9.377548 
	C137.391571,10.868146 136.131638,14.932577 133.132767,10.506021 
	C134.760727,8.794907 136.411896,7.059388 138.063080,5.323870 
	C138.581512,5.315131 139.099945,5.306393 139.618378,5.297654 
	C139.618378,6.566415 139.618378,7.835176 139.399918,9.377548 
z"/>
<path fill="#F8F9FB" opacity="1.000000" stroke="none" 
	d="
M139.027191,26.783672 
	C137.934204,27.145304 136.599594,27.586351 135.771423,27.122725 
	C134.172699,26.227722 132.859879,24.822029 131.503754,23.690798 
	C130.297241,26.008606 129.390930,27.749718 128.484604,29.490831 
	C127.986641,29.277941 127.488670,29.065048 126.990707,28.852158 
	C126.906525,27.085917 126.822342,25.319675 126.361176,23.400877 
	C125.439445,23.460213 124.894714,23.672108 123.996948,24.144581 
	C123.368950,24.544739 123.275558,24.762342 123.363762,25.057974 
	C123.363762,25.057974 123.110580,24.983131 122.831650,25.090694 
	C122.212646,25.369856 122.072098,25.643841 122.131073,26.020210 
	C120.608986,26.986240 119.178574,28.189783 117.529320,28.826340 
	C116.588669,29.189400 115.291077,28.627636 112.757011,28.303686 
	C117.196564,25.111271 120.367340,22.831211 123.538124,20.551153 
	C123.327759,20.111933 123.117393,19.672714 122.907028,19.233494 
	C120.368385,19.233494 117.829742,19.233494 115.053848,19.233494 
	C115.053848,17.676220 115.053848,16.581221 115.053848,15.080565 
	C118.683830,15.080565 122.431168,15.080565 126.827705,15.080565 
	C126.827705,11.118106 126.827705,7.535016 126.923218,3.502555 
	C129.165009,2.714928 130.518936,3.119915 130.331589,5.807619 
	C130.136658,8.604567 130.288147,11.425662 130.288147,13.937772 
	C133.018967,17.198057 139.300583,11.616710 140.612885,19.081821 
	C136.748566,19.081821 133.411835,19.081821 130.075104,19.081821 
	C130.012894,19.416382 129.950684,19.750944 129.888474,20.085505 
	C132.706482,21.667740 135.524475,23.249975 138.668518,24.984291 
	C139.001160,25.575708 139.007767,26.015045 139.027191,26.783672 
z"/>
<path fill="#E5E5E5" opacity="1.000000" stroke="none" 
	d="
M122.378922,8.521961 
	C122.455498,10.169865 122.324829,11.543233 122.194160,12.916602 
	C121.388191,13.009917 120.582230,13.103232 119.776268,13.196548 
	C118.931473,10.786622 118.086685,8.376698 117.241898,5.966772 
	C118.885155,6.726989 120.528419,7.487208 122.378922,8.521961 
z"/>
<path fill="#13171B" opacity="1.000000" stroke="none" 
	d="
M122.328506,25.950212 
	C122.072098,25.643841 122.212646,25.369856 122.797241,25.218140 
	C122.948196,25.515039 122.776253,25.729103 122.328506,25.950212 
z"/>
<path fill="#13171B" opacity="1.000000" stroke="none" 
	d="
M123.499451,24.984703 
	C123.275558,24.762342 123.368950,24.544739 123.835175,24.423092 
	C123.937653,24.632483 123.807220,24.789284 123.499451,24.984703 
z"/>
<path fill="#FBFBFB" opacity="1.000000" stroke="none" 
	d="
M86.952652,37.988152 
	C86.952530,34.861652 86.952530,32.222115 86.952530,29.302275 
	C93.084145,29.302275 98.984459,29.302275 105.177917,29.302275 
	C105.177917,34.673153 105.177917,40.069366 105.177917,45.726044 
	C99.374222,45.726044 93.451195,45.726044 86.952766,45.726044 
	C86.952766,43.333569 86.952766,40.904343 86.952652,37.988152 
z"/>
<path fill="#FBFBFB" opacity="1.000000" stroke="none" 
	d="
M86.953453,14.114783 
	C87.106682,11.997316 86.167931,9.860659 89.354584,9.969473 
	C94.629341,10.149588 99.914734,10.018442 105.333405,10.018442 
	C105.333405,15.127130 105.333405,19.752003 105.333405,24.680729 
	C99.421700,24.680729 93.516312,24.680729 86.953049,24.680729 
	C86.953049,21.425095 86.953049,18.011784 86.953453,14.114783 
z"/>
<path fill="#FDFDFD" opacity="1.000000" stroke="none" 
	d="
M35.316414,10.354109 
	C40.988655,10.063854 46.274826,10.063854 51.738754,10.063854 
	C51.738754,13.411122 51.738754,16.358015 51.738754,19.650160 
	C46.248775,19.650160 40.709618,19.650160 34.930347,19.650160 
	C34.930347,16.567862 34.930347,13.606113 35.316414,10.354109 
z"/>
<path fill="#FDFDFD" opacity="1.000000" stroke="none" 
	d="
M51.922180,29.902374 
	C51.119473,31.243778 50.353313,32.829990 49.508392,32.873119 
	C44.729939,33.117043 39.932602,32.991043 34.914803,32.991043 
	C34.914803,29.989349 34.914803,27.272490 34.914803,24.279583 
	C40.470745,24.279583 45.872810,24.279583 51.922356,24.279583 
	C51.922356,25.945625 51.922356,27.690115 51.922180,29.902374 
z"/>
<path fill="#13171B" opacity="1.000000" stroke="none" 
	d="
M157.235565,17.385303 
	C156.417328,23.789560 155.229828,29.979712 154.042328,36.169861 
	C153.191864,36.205643 152.341400,36.241425 151.490936,36.277203 
	C149.894257,30.189306 148.297562,24.101408 146.479965,17.171196 
	C150.705429,17.171196 153.785873,17.171196 157.235565,17.385303 
z"/>
<path fill="#FFFFFF" opacity="1.000000" stroke="none" 
	d="
M67.060822,65.013420 
	C68.506149,65.003220 69.770424,64.614189 70.445862,65.079636 
	C72.106056,66.223679 74.632263,67.719116 74.685013,69.151489 
	C74.741798,70.693314 72.658119,72.830460 70.982513,73.759224 
	C69.595665,74.527939 67.443771,73.916405 64.396744,73.916405 
	C65.195366,70.710152 65.903610,67.866760 67.060822,65.013420 
z"/>
<path fill="#FFFFFF" opacity="1.000000" stroke="none" 
	d="
M96.957458,81.771667 
	C95.943871,82.962738 95.052834,84.198883 93.953484,84.425789 
	C92.329338,84.761024 90.533691,84.507500 88.865730,84.204163 
	C88.487007,84.135292 87.996834,82.264076 88.126022,82.188065 
	C89.553314,81.348389 91.366966,79.842346 92.532661,80.215256 
	C93.997643,80.683907 96.941376,76.365463 96.957458,81.771667 
z"/>
</svg>